<svg width="100%" height="100%" viewBox="0 0 1080 1080" version="1.1" xmlns="http://www.w3.org/2000/svg" xmlns:xlink="http://www.w3.org/1999/xlink" xml:space="preserve" xmlns:serif="http://www.serif.com/" style="fill-rule:evenodd;clip-rule:evenodd;stroke-linecap:round;stroke-linejoin:round;stroke-miterlimit:1.5;">
    <path d="M348.138,167.711c0,0 17.013,52.947 10.086,83.61c-0,-0 1.281,29.66 -25.412,59.161c-0,-0 -60.605,67.547 -61.083,88.008c-0.045,1.761 -0.325,3.508 -0.832,5.195c-1.72,6.065 -5.431,19.977 -8.519,37.791c-0.395,2.274 -1.138,4.475 -2.203,6.523c-6.33,12.541 -28.528,60.173 -22.308,99.783c-0,-0 4.178,34.785 12.719,57.678c1.41,3.615 1.885,7.528 1.38,11.375c-1.982,19.392 -4.117,84.073 38.767,174.851c0,-0 55.062,113.159 136.601,165.458c0,0 102.246,73.29 159.127,73.175c0.729,-0.005 1.456,0.083 2.162,0.262c6.305,1.229 34.258,3.235 73.001,-41.617c4.743,-5.469 8.168,-11.954 10.01,-18.956c5.518,-20.611 19.51,-68.206 36.257,-88.289c0,-0 85.128,-127.818 91.59,-165.138c0,0 20.147,-91.493 -2.224,-124.05l-15.614,-27.358c0,-0 39.046,-60.844 35.488,-84.582c0,-0 20.616,-7.105 28.08,-30.782c-0,0 -1.216,-9.587 -10.591,-11.878c-0,0 13.342,-34.314 -1.923,-31.696c0,-0 9.79,-3.48 -19.704,-18.693c0,0 29.551,-39.948 8.876,-55.246c-0,-0 1.205,-10.601 -54.045,-26.75c0,0 -18.618,-17.567 -36.867,-12.046c0,-0 -11.249,0.255 -7.333,-11.194c-0,-0 12.494,-79.105 -56.085,-134.477c0,0 -31.472,-21.193 -2.613,-44.201c0,-0 16.382,-15.267 32.853,-24.371c3.697,-1.909 6.068,-5.672 6.194,-9.831c0.311,-12.59 -2.783,-37.565 -32.563,-35.05c-0,-0 -63.516,20.192 -84.72,88.146l-12.639,0.73c-0,0 -10.48,-21.307 -12.659,-48.784c-0.693,-8.953 -8.172,-15.857 -17.151,-15.833c-9.359,0.063 -20.81,1.476 -29.406,6.758c-6.239,3.808 -9.341,11.181 -7.701,18.303c3.993,17.582 13.142,57.322 13.142,57.322c-0,0 -15.387,23.614 -30.917,5.429c-0,0 -15.354,-21.081 -22.094,-44.884c-1.486,-5.456 -6.909,-8.861 -12.469,-7.829c-10.486,2.007 -26.955,7.414 -40.104,21.78l7.22,14.57c-0,-0 -23.524,-1.079 -28.077,9.622c-0,-0 -40.656,5.148 -47.249,21.731l1.552,6.274Zm199.488,91.352c-0.475,0.717 -0.719,1.129 -0.719,1.129c0.058,-0.207 0.297,-0.601 0.719,-1.129c4.031,-6.081 24.706,-34.133 54.807,-20.143c0,-0 7.335,2.937 9.91,15.259c0.82,3.416 -0.634,6.975 -3.612,8.84c-2.978,1.865 -6.814,1.62 -9.531,-0.609c-1.895,-1.514 -3.707,-3.216 -5.26,-5.102c-6.22,-7.578 -16.113,-11.106 -25.724,-9.172c-11.771,2.327 -18.478,8.288 -20.59,10.927Z" style="fill:url(#_Linear1);"/>
    <clipPath id="_clip2">
        <path d="M348.138,167.711c0,0 17.013,52.947 10.086,83.61c-0,-0 1.281,29.66 -25.412,59.161c-0,-0 -60.605,67.547 -61.083,88.008c-0.045,1.761 -0.325,3.508 -0.832,5.195c-1.72,6.065 -5.431,19.977 -8.519,37.791c-0.395,2.274 -1.138,4.475 -2.203,6.523c-6.33,12.541 -28.528,60.173 -22.308,99.783c-0,-0 4.178,34.785 12.719,57.678c1.41,3.615 1.885,7.528 1.38,11.375c-1.982,19.392 -4.117,84.073 38.767,174.851c0,-0 55.062,113.159 136.601,165.458c0,0 102.246,73.29 159.127,73.175c0.729,-0.005 1.456,0.083 2.162,0.262c6.305,1.229 34.258,3.235 73.001,-41.617c4.743,-5.469 8.168,-11.954 10.01,-18.956c5.518,-20.611 19.51,-68.206 36.257,-88.289c0,-0 85.128,-127.818 91.59,-165.138c0,0 20.147,-91.493 -2.224,-124.05l-15.614,-27.358c0,-0 39.046,-60.844 35.488,-84.582c0,-0 20.616,-7.105 28.08,-30.782c-0,0 -1.216,-9.587 -10.591,-11.878c-0,0 13.342,-34.314 -1.923,-31.696c0,-0 9.79,-3.48 -19.704,-18.693c0,0 29.551,-39.948 8.876,-55.246c-0,-0 1.205,-10.601 -54.045,-26.75c0,0 -18.618,-17.567 -36.867,-12.046c0,-0 -11.249,0.255 -7.333,-11.194c-0,-0 12.494,-79.105 -56.085,-134.477c0,0 -31.472,-21.193 -2.613,-44.201c0,-0 16.382,-15.267 32.853,-24.371c3.697,-1.909 6.068,-5.672 6.194,-9.831c0.311,-12.59 -2.783,-37.565 -32.563,-35.05c-0,-0 -63.516,20.192 -84.72,88.146l-12.639,0.73c-0,0 -10.48,-21.307 -12.659,-48.784c-0.693,-8.953 -8.172,-15.857 -17.151,-15.833c-9.359,0.063 -20.81,1.476 -29.406,6.758c-6.239,3.808 -9.341,11.181 -7.701,18.303c3.993,17.582 13.142,57.322 13.142,57.322c-0,0 -15.387,23.614 -30.917,5.429c-0,0 -15.354,-21.081 -22.094,-44.884c-1.486,-5.456 -6.909,-8.861 -12.469,-7.829c-10.486,2.007 -26.955,7.414 -40.104,21.78l7.22,14.57c-0,-0 -23.524,-1.079 -28.077,9.622c-0,-0 -40.656,5.148 -47.249,21.731l1.552,6.274Zm199.488,91.352c-0.475,0.717 -0.719,1.129 -0.719,1.129c0.058,-0.207 0.297,-0.601 0.719,-1.129c4.031,-6.081 24.706,-34.133 54.807,-20.143c0,-0 7.335,2.937 9.91,15.259c0.82,3.416 -0.634,6.975 -3.612,8.84c-2.978,1.865 -6.814,1.62 -9.531,-0.609c-1.895,-1.514 -3.707,-3.216 -5.26,-5.102c-6.22,-7.578 -16.113,-11.106 -25.724,-9.172c-11.771,2.327 -18.478,8.288 -20.59,10.927Z"/>
    </clipPath>
    <g clip-path="url(#_clip2)">
        <path d="M587.829,235.11c-21.318,-0.202 12.262,-16.972 40.559,-4.469c0,0 22.786,8.468 29.676,40.095c-0,0 9.009,24.81 -17.27,17.554c0,-0 -30.203,-10.089 -29.694,-19.6c0,-0 15.202,-11.618 0.813,-26.07c0,-0 -2.766,-7.309 -24.084,-7.51Z" style="fill:rgb(246,4,4);stroke:rgb(246,4,4);stroke-width:6px;"/>
        <path d="M609.119,236.068c-12.85,-0.161 7.392,-13.536 24.449,-3.564c0,-0 13.735,6.753 17.888,31.976c0,0 5.431,19.787 -10.41,14c0,-0 -18.206,-8.046 -17.899,-15.632c-0,0 9.164,-9.265 0.49,-20.791c-0,-0 -1.667,-5.829 -14.518,-5.989Z" style="fill:rgb(252,78,78);stroke:rgb(246,4,4);stroke-width:6px;"/>
    </g>
    <path d="M348.138,167.711c0,0 17.013,52.947 10.086,83.61c-0,-0 1.281,29.66 -25.412,59.161c-0,-0 -60.605,67.547 -61.083,88.008c-0.045,1.761 -0.325,3.508 -0.832,5.195c-1.72,6.065 -5.431,19.977 -8.519,37.791c-0.395,2.274 -1.138,4.475 -2.203,6.523c-6.33,12.541 -28.528,60.173 -22.308,99.783c-0,-0 4.178,34.785 12.719,57.678c1.41,3.615 1.885,7.528 1.38,11.375c-1.982,19.392 -4.117,84.073 38.767,174.851c0,-0 55.062,113.159 136.601,165.458c0,0 102.246,73.29 159.127,73.175c0.729,-0.005 1.456,0.083 2.162,0.262c6.305,1.229 34.258,3.235 73.001,-41.617c4.743,-5.469 8.168,-11.954 10.01,-18.956c5.518,-20.611 19.51,-68.206 36.257,-88.289c0,-0 85.128,-127.818 91.59,-165.138c0,0 20.147,-91.493 -2.224,-124.05l-15.614,-27.358c0,-0 39.046,-60.844 35.488,-84.582c0,-0 20.616,-7.105 28.08,-30.782c-0,0 -1.216,-9.587 -10.591,-11.878c-0,0 13.342,-34.314 -1.923,-31.696c0,-0 9.79,-3.48 -19.704,-18.693c0,0 29.551,-39.948 8.876,-55.246c-0,-0 1.205,-10.601 -54.045,-26.75c0,0 -18.618,-17.567 -36.867,-12.046c0,-0 -11.249,0.255 -7.333,-11.194c-0,-0 12.494,-79.105 -56.085,-134.477c0,0 -31.472,-21.193 -2.613,-44.201c0,-0 16.382,-15.267 32.853,-24.371c3.697,-1.909 6.068,-5.672 6.194,-9.831c0.311,-12.59 -2.783,-37.565 -32.563,-35.05c-0,-0 -63.516,20.192 -84.72,88.146l-12.639,0.73c-0,0 -10.48,-21.307 -12.659,-48.784c-0.693,-8.953 -8.172,-15.857 -17.151,-15.833c-9.359,0.063 -20.81,1.476 -29.406,6.758c-6.239,3.808 -9.341,11.181 -7.701,18.303c3.993,17.582 13.142,57.322 13.142,57.322c-0,0 -15.387,23.614 -30.917,5.429c-0,0 -15.354,-21.081 -22.094,-44.884c-1.486,-5.456 -6.909,-8.861 -12.469,-7.829c-10.486,2.007 -26.955,7.414 -40.104,21.78l7.22,14.57c-0,-0 -23.524,-1.079 -28.077,9.622c-0,-0 -40.656,5.148 -47.249,21.731l1.552,6.274Zm199.488,91.352c-0.475,0.717 -0.719,1.129 -0.719,1.129c0.058,-0.207 0.297,-0.601 0.719,-1.129c4.031,-6.081 24.706,-34.133 54.807,-20.143c0,-0 7.335,2.937 9.91,15.259c0.82,3.416 -0.634,6.975 -3.612,8.84c-2.978,1.865 -6.814,1.62 -9.531,-0.609c-1.895,-1.514 -3.707,-3.216 -5.26,-5.102c-6.22,-7.578 -16.113,-11.106 -25.724,-9.172c-11.771,2.327 -18.478,8.288 -20.59,10.927Z" style="fill:none;stroke:black;stroke-width:6px;"/>
    <path d="M295.762,688.983c-0,0 -7.348,-8.029 -3.59,-39.132c0,-0 20.037,6.702 39.555,38.512c-0,-0 -33.284,-45.938 -32.914,-69.996c0,-0 6.422,-36.856 20.208,-74.41c0,0 5.812,-27.097 3.356,-35.599c0,0 11.244,-14.911 22.27,-24.039c3.226,-2.578 7.658,-3.039 11.346,-1.181c3.688,1.857 5.955,5.693 5.803,9.82c-0.818,13.547 -2.723,37.494 -7.067,73.546c-0.252,2.117 -0.828,4.182 -1.708,6.124c-3.185,7.055 -9.506,29.097 15.641,60.008c-0,0 -12.87,-32.51 -4.814,-52.801c0.564,-1.274 1.686,-2.215 3.039,-2.549c1.352,-0.335 2.783,-0.025 3.876,0.838c7.197,5.854 21.594,21.451 32.454,57.297c-0,-0 3.208,-41.236 -25.978,-70.819c-2.126,-2.143 -3.527,-4.897 -4.007,-7.876c-1.904,-12.893 -5.535,-49.803 7.74,-86.446c0,-0 8.408,-21.642 46.263,-42.056l-53.811,22.378c-36.086,12.471 -79.742,57.236 -79.742,57.236c-64.03,66.887 -47.759,73.39 -47.759,73.39l6.967,18.645c15.463,-17.481 23.306,-45.203 23.306,-45.203c-0,0 7.856,-26.055 26.768,-34.132c-0,-0 -1.607,57.299 -23.019,111.406c-0,0 -11.524,31.119 -3.594,42.271c-0,0 4.581,-49.416 7.754,-19.168c-0,0 -3.424,44.048 9.129,51.291c0,-0 -2.976,-22.746 2.528,-17.355c-0,0 14.681,7.348 36.708,46.487" style="stroke:black;stroke-width:6px;"/>
    <path d="M812.993,387.542c0,0 -20.284,28.576 -33.122,7.989c-0,0 -12.989,-42.619 -48.29,-35.675c-0,0 -55.503,1.491 -105.665,39.277c0,-0 -26.872,24.664 -35.598,46.766" style="fill:none;stroke:black;stroke-width:6px;"/>
    <g>
        <path d="M432.929,450.138c-0,-0 16.021,-15.152 23.088,-21.835c2.126,-2.011 3.822,-4.432 4.988,-7.116c3.695,-8.398 12.985,-27.636 23.278,-34.944c2.18,-1.54 4.145,-3.362 5.844,-5.42c4.139,-5.013 15.525,-15.309 45.765,-29.378c0,0 33.287,-15.435 50.167,-17.965c-0,-0 -30.709,17.462 -44.099,30.286c-4.624,4.432 -9.958,8.058 -15.782,10.724c-6.202,2.851 -15.307,9.02 -27.163,22.241c0,0 -2.22,3.484 -4.194,8.142c-5.28,12.41 -14.878,22.487 -27.016,28.365c-16.369,7.938 -34.876,16.9 -34.876,16.9Z" style="fill:rgb(199,3,3);stroke:rgb(199,3,3);stroke-width:6px;"/>
        <path d="M460.409,425.771c0,-0 7.846,-8.252 12.265,-12.901c1.875,-1.972 3.361,-4.279 4.382,-6.801c2.315,-5.683 7.173,-16.359 12.562,-20.944c1.516,-1.291 2.9,-2.729 4.132,-4.294c2.675,-3.359 9.42,-9.758 26.028,-18.352c-0,0 19.193,-9.898 28.926,-11.521c-0,-0 -15.932,10.076 -24.16,18.132c-3.437,3.389 -7.289,6.33 -11.463,8.753c-3.516,2.055 -8.395,6.024 -14.566,13.678c-0,0 -0.469,0.817 -1.091,2.124c-5.101,10.654 -13.454,19.414 -23.854,25.015c-7.053,3.821 -13.161,7.111 -13.161,7.111Z" style="fill:rgb(246,4,4);stroke:rgb(199,3,3);stroke-width:6px;"/>
    </g>
    <path d="M546.907,260.192c-0,-0 -18.135,17.22 -7.33,61.015c-0,0 -65.734,33.957 -92.508,76.644" style="fill:none;stroke:black;stroke-width:6px;"/>
    <path d="M393.835,139.706c-0,-0 -7.82,22.867 -10.441,55.347" style="fill:none;stroke:black;stroke-width:6px;"/>
    <path d="M421.912,130.084c-0,-0 25.916,8.081 33.905,28.045c0,-0 16.26,11.57 -19.867,84.02c0,-0 -27.226,37.2 -34.728,85.979c-0,0 -7.616,16.017 -1.469,56.945c-0,0 7.858,21.933 -20.073,52.696" style="fill:none;stroke:black;stroke-width:6px;"/>
    <path d="M530.205,68.595c8.371,-2.037 15.6,-1.908 16.134,0.287c0.534,2.195 -5.828,5.631 -14.198,7.668c-8.37,2.036 -15.6,1.908 -16.134,-0.288c-0.534,-2.195 5.828,-5.631 14.198,-7.667Z" style="stroke:black;stroke-width:6px;"/>
    <path d="M814.896,342.203c4.918,2.69 4.508,12.921 -0.914,22.832c-5.422,9.911 -13.816,15.774 -18.734,13.084c-4.917,-2.69 -4.507,-12.921 0.915,-22.832c5.422,-9.911 13.816,-15.774 18.733,-13.084Z" style="stroke:black;stroke-width:6px;"/>
    <path d="M413.146,144.596c4.212,-3.699 13.683,0.191 21.138,8.68c7.454,8.489 10.086,18.383 5.875,22.082c-4.212,3.698 -13.684,-0.191 -21.138,-8.68c-7.454,-8.489 -10.087,-18.384 -5.875,-22.082Z" style="stroke:black;stroke-width:6px;"/>
    <path d="M831.6,414.455c2.824,1.545 2.213,8.109 -1.365,14.649c-3.577,6.539 -8.775,10.594 -11.599,9.049c-2.824,-1.545 -2.213,-8.109 1.365,-14.648c3.577,-6.54 8.775,-10.595 11.599,-9.05Z" style="stroke:black;stroke-width:6px;"/>
    <path d="M835.136,450.603c1.732,1.481 0.348,5.945 -3.088,9.962c-3.436,4.016 -7.632,6.074 -9.364,4.593c-1.732,-1.482 -0.348,-5.946 3.088,-9.962c3.436,-4.017 7.632,-6.075 9.364,-4.593Z" style="stroke:black;stroke-width:6px;"/>
    <path d="M649.941,488.702c-4.841,-0.902 -9.843,0.117 -13.946,2.841c-16.195,11.233 -58.172,44.96 -77.387,104.82c-0,0 -13.042,31.794 -67.164,46.244c-1.291,0.342 -2.61,0.571 -3.941,0.684c-4.166,0.363 -14.1,2.738 -24.568,14.637c-0,-0 67.047,-10.48 80.095,-26.193c-0,-0 -51.223,57.547 -41.152,114.457c0.03,0.162 0.079,0.319 0.147,0.469c0.829,2.782 2.671,19.38 -39.987,74.243c0,-0 -17.963,31.246 7.727,78.456c0,0 -19.551,-55.864 23.921,-103.151c0,0 3.469,-26.589 27.589,50.968c0.861,2.753 2.006,5.41 3.415,7.927c8.007,14.717 35.162,68.767 34.929,123.347c0,0 26.31,-59.351 -5.421,-130.229c-0.54,-1.2 -0.93,-2.462 -1.163,-3.756c-2.891,-16.395 -22.328,-130.393 -5.718,-137.947c0,-0 30.275,15.471 50.256,122.784c-0,0 5.349,32.38 -11.781,111.192c0,0 -3.53,31.894 4.668,38.715c0,-0 4.038,-52.524 16.816,-75.448c-0,0 22.069,-56.242 8.735,-103.649c-0,0 15.478,-10.649 54.381,87.783c-0,0 13.21,-57.803 -49.379,-108c0,0 -46.36,-58.455 -52.292,-125.316c0,0 1.711,-53.467 41.215,-85.934c-0,-0 4.152,15.875 29.369,39.987c-0,0 6.831,7.063 19.108,42.199c-0,-0 12.716,-5.694 -19.094,-81.7c-0,-0 -13.279,-36.42 10.377,-48.706c0.292,-0.152 0.56,-0.347 0.795,-0.579c3.156,-2.567 21.276,-12.357 80.506,27.24c-0,0 30.613,11.947 4.596,142.529c0,0 -11.616,27.382 31.849,95.666l3.476,-6.688c-0,0 -40.599,-56.171 -17.814,-111.651c0,0 19.345,-91.904 -6.953,-127.292c0,-0 -19.111,-30.366 -85.666,-48.83c-1.119,-0.31 -2.25,-0.571 -3.391,-0.783c-1.699,-0.319 -4.479,-0.837 -7.153,-1.336Z" style="stroke:black;stroke-width:6px;"/>
    <path d="M606.369,111.633c0,0 1.828,1.62 30.414,-31.27c0.396,-0.455 0.813,-0.892 1.249,-1.309c2.091,-1.998 8.651,-8.268 12.083,-11.549c1.414,-1.351 2.553,-2.962 3.356,-4.746c0.333,-0.74 0.699,-1.553 1.05,-2.333c0.394,-0.876 0.376,-1.882 -0.049,-2.743c-0.425,-0.861 -1.213,-1.488 -2.148,-1.707c-0,-0 -0.001,-0.001 -0.001,-0.001c-2.164,-0.509 -4.442,-0.051 -6.242,1.254c-5.558,4.328 -18.545,15.248 -30.718,31.888c-3.922,5.381 -6.646,11.539 -7.99,18.06c-0.589,2.443 -1.004,4.456 -1.004,4.456Z" style="fill:rgb(252,78,78);stroke:rgb(246,4,4);stroke-width:1.9px;"/>
    <path d="M615.323,98.491c0,-0 0.464,1.472 20.377,-20.017c0.349,-0.375 0.712,-0.737 1.089,-1.085c1.333,-1.229 4.721,-4.353 6.997,-6.451c1.472,-1.357 2.739,-2.923 3.759,-4.646c0.396,-0.669 0.809,-1.368 1.162,-1.964c0.521,-0.881 0.306,-2.011 -0.502,-2.638c-0.001,-0.001 -0.001,-0.001 -0.001,-0.001c-0.855,-0.663 -2.041,-0.694 -2.93,-0.077c-3.322,2.49 -11.869,9.398 -21.317,21.137c-2.742,3.406 -4.992,7.182 -6.684,11.215c-1.021,2.311 -1.95,4.527 -1.95,4.527Z" style="fill:rgb(253,142,142);stroke:rgb(252,75,75);stroke-width:1.9px;"/>
    <defs>
        <linearGradient id="_Linear1" x1="0" y1="0" x2="1" y2="0" gradientUnits="userSpaceOnUse" gradientTransform="matrix(230.12,-811.275,811.275,230.12,296.417,916.765)"><stop offset="0" style="stop-color:rgb(148,3,3);stop-opacity:1"/><stop offset="1" style="stop-color:rgb(216,0,0);stop-opacity:1"/></linearGradient>
    </defs>
</svg>
