<svg width="855" height="1266" viewBox="0 0 855 1266" fill="none" xmlns="http://www.w3.org/2000/svg">
<rect width="1590" height="1512" transform="matrix(-1 0 0 1 1241 -95)"/>
<path fill-rule="evenodd" clip-rule="evenodd" d="M460.793 536.173C436.108 517.376 374.135 508.923 347.789 527.022C321.767 545.197 318.93 574.588 306.804 601.626C295.363 596.231 276.47 603.958 273.153 614.574C269.039 619.581 268.854 633.648 266.017 640.379C142.575 660.028 123.834 756.267 108.976 865.525C89.3202 976.394 44.6992 1087.02 64.0702 1201.11C61.5462 1204.76 59.5562 1208.31 57.7162 1212.52C53.3072 1220.03 58.9862 1230.65 67.8792 1230.23C79.3902 1229.22 90.7872 1227.84 102.352 1227.41C134.412 1226.3 166.501 1226.43 198.573 1226.84L202.946 1226.9C364.579 1228.91 526.203 1232.87 687.843 1233.93C693.707 1233.93 696.578 1228.67 695.795 1223.49C694.218 1213.04 692.755 1202.59 691.228 1192.14C729.46 1202.24 770.104 1204.78 808.228 1193.2C810.895 1190.49 802.014 1191.96 800.605 1191.55C835.691 1167.57 825.213 1117.06 822.105 1080.69C802.779 956.036 795.966 818.118 721.297 711.751C688.994 668.343 641.635 633.975 587.216 626.242L585.706 626.035C569.794 623.914 552.061 623.23 538.148 614.574C522.501 602.083 515.833 579.002 499.372 578.786C493.936 578.715 486.541 585.591 478.584 590.26C477.99 579.989 472.455 571.322 471.233 563.358L471.134 562.677C469.859 553.393 471.605 545.04 460.793 536.173ZM195.505 868.818C230.196 844.719 319.809 856.828 321.86 858.177C326.377 861.148 328.322 861.411 330.765 865.269C333.177 865.589 335.587 865.921 337.995 866.263C342.826 867.841 339.246 873.783 333.666 871.663C337.022 886.137 327.145 896.431 323.213 910.74C321.936 915.386 323.167 923.743 323.213 928.49C322.832 934.543 316.14 941.693 317.255 947.765C321.22 969.354 342.738 990.414 333.666 1011.35C327.656 1023.18 309.58 1029.21 297.562 1033.23C272.663 1042.78 229.279 1032.87 214.812 1011.35C207.096 999.875 198.156 970.928 193.555 961.949L192.535 947.705C190.02 912.298 187.783 874.183 195.505 868.818Z" fill="white"/>
<path fill-rule="evenodd" clip-rule="evenodd" d="M505.416 576.698C503.021 574.577 499.477 577.242 500.999 580.107C504.419 586.546 507.927 592.647 512.517 598.339C515.3 601.79 518.281 605.054 521.302 608.282C513.549 614.989 506.9 623.316 500.621 631.12C492.592 641.101 485.001 651.505 475.988 660.638C467.099 669.645 457.27 675.942 445.387 680.14L442.986 680.974C431.048 685.165 418.289 690.825 411.56 702.128C410.233 704.357 412.905 707.111 415.151 705.72C426.844 698.48 440.583 697.024 453.311 692.24C465.606 687.619 476.324 680.507 485.794 671.43C495.248 662.368 503.186 652.058 511.466 641.966C519.654 631.987 528.47 623.464 538.155 615.021C553.1 625.075 570.16 629.45 587.507 633.747L589.401 634.216C606.769 638.516 624.044 643.51 640.338 650.998C654.704 657.599 668.834 665.482 680.536 676.224C692.958 687.624 702.626 702.184 711.475 716.423C731.269 748.279 745.185 783.179 757.436 818.503C770.178 855.245 780.836 892.723 789.44 930.646C793.816 949.936 797.37 969.363 800.291 988.926C801.697 998.348 802.946 1007.79 804.043 1017.25C805.214 1027.36 805.483 1037.75 808.583 1047.47C809.912 1051.63 813.05 1053.36 816.191 1053.21L816.829 1061.19C817.675 1071.83 818.463 1082.47 818.73 1093.18C819.172 1110.97 818.971 1128.72 817.691 1146.48L817.51 1148.9C816.504 1161.87 814.256 1176.43 804.509 1185.92C794.415 1195.75 778.892 1198.84 765.287 1199.02C733.6 1199.43 703.098 1184.46 675.058 1171.33C646.18 1157.8 618.091 1142.78 590.675 1126.5C576.713 1118.21 562.902 1109.64 549.267 1100.82C542.576 1096.49 535.932 1092.09 529.338 1087.61C525.561 1085.05 521.982 1082.24 518.137 1079.97C520.021 1078.22 520.862 1075.46 519.284 1073.05C530.399 1063.4 535.025 1046.18 535.566 1032.25C536.003 1021.01 534.348 1009.8 533.042 998.657C532.383 993.04 531.569 987.433 530.724 981.841C530.39 979.632 530.135 977.269 529.745 974.937C559.758 991.43 590.612 1006.12 622.283 1019.17C638.517 1025.86 654.959 1031.87 671.628 1037.38L675.006 1038.49C690.8 1043.66 706.972 1048.55 723.3 1051.5C724.173 1051.66 724.882 1050.37 723.95 1049.96C708.038 1042.94 691.575 1037.02 675.424 1030.55L672.77 1029.47V1029.47C673.075 1029.45 673.391 1029.41 673.721 1029.33C683.193 1027.05 692.591 1023.52 701.881 1020.56C710.503 1017.8 720.19 1016.07 728.249 1011.92C728.869 1011.6 728.522 1010.74 727.918 1010.7C718.86 1010.07 709.027 1012.71 700.146 1014.26L696.809 1014.85C691.22 1015.83 685.507 1016.89 679.946 1018.27C679.745 1016.41 678.704 1014.54 677.223 1013.44C660.926 1001.37 662.581 976.996 660.838 959.021L659.545 945.676C657.272 922.321 654.867 898.969 651.213 875.788C651.018 874.55 649.103 874.905 649.095 876.074C648.906 904.809 651.075 933.411 652.163 962.101L652.331 966.807C652.932 984.51 653.403 1002.89 664.553 1016.51C662.994 1015.6 660.886 1015.6 659.623 1017.11C658.071 1018.95 657.175 1021.03 657.203 1023.06C647.128 1018.84 637.097 1014.5 627.115 1010.08C595.022 995.863 563.602 979.952 533.013 962.736C529.721 960.883 526.592 962.339 524.964 964.782L524.729 964.748C524.689 964.743 524.65 964.739 524.609 964.738L524.376 964.728C524.367 964.728 524.358 964.729 524.35 964.729C520.044 962.363 514.178 964.048 510.483 967.499C510.374 967.603 510.281 967.715 510.184 967.825C505.506 965.725 501.138 962.89 497.174 959.297C489.062 951.945 482.191 942.854 476.201 933.738C465.17 916.948 455.8 898.277 440.899 884.456C428.792 873.227 413.782 866.236 398.035 861.847C398.101 861.387 397.925 860.897 397.607 860.571C396.798 859.742 396.221 859.455 395.176 859.958C395.093 859.999 395.043 860.055 395.009 860.115L393.472 857.49C392.633 856.065 391.772 854.63 391.474 854.253C389.686 852.002 387.846 849.768 385.978 847.581C382.811 843.878 379.202 840.224 375.023 837.656C365.873 832.035 356.254 835.216 346.847 838.288C341.163 840.145 335.498 842.062 329.824 843.947L329.238 844.138C325.008 845.497 320.057 846.686 318.165 851.169C317.416 852.943 317.3 854.784 317.649 856.57C277.465 846.351 232.833 851.046 193.62 863.042C192.115 863.502 190.612 864.74 190.295 866.366C185.802 889.407 183.801 913.036 185.834 936.47C187.588 956.698 192.07 976.521 200.516 995.04L200.996 996.086C208.933 1013.25 221.514 1034.4 240.727 1039.78C252.328 1043.03 265.159 1041.12 276.991 1040.52C288.49 1039.94 300.244 1039.86 311.634 1038.05C321.778 1036.44 330.666 1031.89 336.935 1023.65C342.343 1016.53 345.191 1007.93 347.524 999.375C348.592 999.715 349.653 1000.08 350.697 1000.48C355.104 1002.21 358.838 1004.98 362.214 1008.25C369.343 1015.16 374.873 1023.54 382.332 1030.13C389.084 1036.09 396.778 1040.73 405.031 1044.3C422.132 1051.69 440.478 1054.64 458.567 1058.56L459.829 1058.83C473.447 1061.82 487.347 1065.49 499.367 1072.58C499.602 1074.66 500.553 1076.63 502.077 1077.92C499.957 1079.91 499.059 1083.06 500.922 1086.02C506.126 1094.28 515.089 1098.97 523.136 1104.26L523.66 1104.6C531.576 1109.85 539.561 1114.99 547.611 1120.03C563.976 1130.28 580.683 1139.96 597.626 1149.22C624.877 1164.1 652.713 1178.15 681.053 1190.88C679.352 1199.25 679.973 1207.88 678.695 1216.31L678.499 1217.51C677.953 1220.63 678.69 1223.25 680.844 1225.29L681.072 1225.5L681.068 1225.47L681.27 1225.66L681.337 1225.72L681.315 1225.7C681.563 1225.93 681.819 1226.14 682.08 1226.32L682.413 1226.53V1226.53C684.487 1227.79 687.157 1227.78 689.281 1226.67L689.524 1226.53L689.932 1226.3C692.738 1224.68 694.673 1220.68 693.509 1217.51C690.648 1209.7 689.567 1201.37 686.925 1193.51L689.021 1194.44V1194.44L691.783 1195.65C721.661 1208.57 754.85 1219.45 787.404 1210.64C801.788 1206.75 815.232 1198.51 822.429 1185.09C829.511 1171.89 830.512 1156.55 830.888 1141.86C831.352 1123.73 830.38 1105.32 827.989 1087.35C826.384 1075.28 824.443 1062.99 821.449 1051.05C822.989 1049.69 824.121 1047.74 824.42 1045.33C825.833 1033.92 823.36 1022.06 821.846 1010.72C820.367 999.639 818.733 988.583 816.885 977.561C813.154 955.302 808.819 933.09 803.772 911.092C794.79 871.941 782.929 833.486 768.649 795.95L767.398 792.68C754.203 758.372 738.924 724.794 717.65 694.654C707.473 680.234 696.715 667.16 682.335 656.769C668.863 647.033 653.667 640.023 637.985 634.665C622.286 629.303 606.15 625.71 589.729 623.475C573.052 621.205 555.449 619.813 539.892 612.973C541.86 609.445 540.171 604.682 536.859 602.494C525.713 595.13 515.406 585.55 505.416 576.698ZM148.61 896.919C148.143 896.21 147.034 896.658 147.239 897.497C152.66 919.706 157.749 941.96 161.072 964.593C167.071 1005.44 165.967 1046.83 165.477 1087.98L165.452 1090.11C165.2 1112.27 164.85 1134.44 164.117 1156.6C163.747 1167.8 163.015 1179.1 163.413 1190.31C163.63 1196.39 165.25 1202.13 165.824 1208.14C166.327 1213.39 165.879 1218.72 165.628 1223.98C165.46 1227.48 170.62 1227.33 170.971 1223.98L171.42 1219.65C172.003 1214.17 172.723 1208.73 174.519 1203.48C176.678 1197.18 177.714 1190.98 178.463 1184.36C179.61 1174.21 180.12 1163.96 180.563 1153.75L180.866 1146.68C182.715 1103.97 182.65 1061.07 179.657 1018.41L179.438 1015.36C176.474 975.038 171.331 931.469 148.61 896.919ZM264.165 642.773C265.581 642.191 265.085 640.05 263.517 640.423L260.665 641.103C239.771 646.107 219.255 651.53 199.753 660.843C180.238 670.161 163.716 684.072 150.588 701.178C125.068 734.429 114.463 774.839 106.091 815.211C96.7869 860.072 88.3159 905.097 78.9309 949.944L77.1881 958.297C68.5041 1000.07 60.3051 1041.86 54.2639 1084.12L53.8299 1087.19C47.7377 1130.65 44.0733 1175.62 50.7209 1219.19C52.0359 1227.81 66.3819 1225.67 65.8209 1217.15C64.2009 1192.53 63.0409 1168.03 64.1619 1143.35C65.2839 1118.67 67.5989 1094.1 71.0499 1069.63C73.954 1049.04 78.2832 1028.71 82.1144 1008.28L82.7149 1005.05C85.9229 987.679 89.2301 970.323 92.53 952.965L97.4613 926.977C104.852 888.064 112.388 849.117 120.903 810.449L121.408 808.173C129.741 770.971 142.026 732.002 167.021 702.46C192.386 672.479 228.697 657.38 264.165 642.773ZM356.332 1037.37C355.722 1036.01 353.588 1036.16 352.932 1037.37C350.362 1042.11 350.076 1048.17 349.59 1053.52L349.539 1054.07C348.921 1060.6 348.374 1067.16 348.039 1073.71C347.404 1086.15 347.1 1098.58 347.139 1111.03C347.179 1123.79 347.436 1136.54 348.124 1149.29L348.311 1152.7C348.939 1163.78 349.992 1176.13 355.255 1185.82C357.168 1189.34 362.371 1188.3 363.479 1184.74C367.109 1173.09 365.245 1159.27 364.314 1147.33L363.591 1138.01C362.875 1128.7 362.192 1119.38 361.651 1110.05C360.909 1097.29 360.297 1084.52 359.708 1071.75C359.517 1067.6 359.31 1063.45 359.091 1059.31L358.755 1053.09C358.468 1047.89 358.492 1042.18 356.332 1037.37ZM764.48 1053.89L762.873 1052.34C757.94 1047.51 751.706 1040.08 744.413 1040.54C741.505 1040.72 739.652 1043.13 740.255 1046C741.543 1052.11 747.782 1055.29 752.273 1059.02C757.193 1063.11 761.83 1067.48 766.458 1071.89C770.564 1075.81 774.513 1079.83 778.367 1083.98L779.807 1085.54C781.189 1087.05 791.026 1095.95 789.962 1098.25L789.904 1098.36C789.608 1098.8 790.101 1099.41 790.592 1099.25C794.84 1097.91 794.575 1094.27 792.969 1090.58C789.883 1083.49 784.479 1076.94 779.76 1070.88C775.054 1064.84 769.96 1059.22 764.48 1053.89V1053.89ZM340.939 876.137C344.224 868.373 356.325 868.536 363.195 869C380.495 870.169 399.213 874.546 414.606 882.632C430.564 891.015 441.314 904.447 450.933 919.3L451.383 919.997C460.758 934.57 469.787 951.821 484.467 961.841C491.944 966.946 500.675 971.607 509.747 973.626C510.37 974.721 511.379 975.588 512.702 975.903L513.317 976.044C515.901 976.614 519.915 977.246 523.382 976.868C523.359 978.564 523.377 980.247 523.334 981.854C523.212 986.459 523.16 991.084 523.16 995.692C523.158 1005.35 523.677 1015.02 523.274 1024.67C522.917 1033.21 521.711 1042.14 517.611 1049.77C514.604 1055.37 510.635 1059.07 505.844 1062.61C494.058 1055.43 480.731 1051.05 467.205 1047.76C450.847 1043.78 434.098 1041.12 418.112 1035.72C410.418 1033.12 403.021 1029.72 396.319 1025.1C389.206 1020.2 383.773 1013.56 378.183 1007.07L377.309 1006.06C371.604 999.522 365.379 993.261 357.317 989.714C350.374 986.658 341.223 986.114 335.152 981.386C331.978 978.912 331.712 975.322 331.378 971.646C335.266 972.202 339.382 971.311 343.257 970.857L345.264 970.621C348.929 970.186 352.509 969.707 356.116 968.775C356.786 968.602 356.786 967.592 356.116 967.419C351.853 966.318 347.628 965.849 343.257 965.337L342.23 965.209C338.276 964.69 334.119 963.908 330.241 964.778C329.545 962.13 328.54 959.602 327.13 957.07C325.151 953.513 321.406 949.48 320.9 945.325C320.749 944.084 321.038 942.621 321.623 941.524L321.824 941.15C322.07 940.708 322.361 940.264 322.788 939.989C322.835 940.044 322.935 940.107 323.152 940.175C326.137 941.115 328.741 939.654 330.123 937.402C335.99 938.13 342.393 937.885 347.895 938.128L353.458 938.397C359.402 938.67 365.616 938.789 371.202 937.588C371.982 937.421 372.218 936.123 371.437 935.789C364.57 932.852 356.24 931.915 348.888 930.787C344.782 930.156 340.646 929.676 336.528 929.121C333.786 928.751 330.876 928.14 328.035 927.993C320.912 919.126 324.75 905.138 334.663 901.32C338.274 902.907 341.521 901.984 345.466 901.645C349.404 901.307 353.352 901.078 357.306 901.095C365.229 901.13 373.625 903.214 381.471 902.317C382.747 902.17 383.933 900.472 382.664 899.436C376.658 894.535 368.05 892.937 360.427 891.892L358.847 891.681C356.291 891.346 353.183 890.857 349.959 890.566C349.23 889.144 347.922 888.069 345.957 887.802C345.373 887.722 344.786 887.675 344.2 887.625L344.209 887.567V887.567C339.417 887.337 339.625 879.243 340.939 876.137ZM669.008 1027.56C669.092 1027.69 669.185 1027.82 669.284 1027.94L669.436 1028.11L668.648 1027.79L669.008 1027.56V1027.56ZM257.317 858.788C277.487 856.621 297.686 857.078 317.916 857.66C319.534 862.952 325.166 867.462 330.623 867.632C326.349 874.137 325.908 882.941 328.905 889.84C322.542 892.373 317.06 896.923 313.732 903.403C309.117 912.386 309.721 922.382 314.282 930.684C310.389 934.208 308.092 939.931 308.322 945.325C308.579 951.34 312.164 956.478 315.143 961.458C318.362 966.844 318.47 971.586 319.459 977.618C320.906 986.446 326.86 991.8 334.521 995.144L334.113 996.746C332.138 1004.43 329.681 1012.55 324.036 1018.17C316.774 1025.4 305.508 1025.33 295.914 1025.79L295.451 1025.81C286.665 1026.25 277.883 1026.77 269.101 1027.27L262.514 1027.63C252.402 1028.19 242.691 1028.26 234.436 1021.57C220.959 1010.66 211.72 992.601 205.872 976.614C193.598 943.058 193.451 906.233 199.085 871.285C217.98 865.195 237.585 860.908 257.317 858.788ZM425.055 914.46L424.907 914.47C420.754 914.944 417.901 918.307 416.885 922.296C415.409 928.094 416.133 933.336 412.582 938.57C408.929 943.952 406.683 948.261 406.152 954.91C405.934 957.646 406.034 960.375 405.425 963.053L404.984 964.929C404.515 966.93 404.131 968.857 404.364 971.005C404.577 972.964 405.531 974.49 407.496 975.118C413.899 977.166 418.843 972.448 420.497 966.481C421.926 961.327 420.018 955.185 422.034 950.345C423.151 947.662 425.211 945.418 426.375 942.717C427.528 940.04 428.107 937.243 428.292 934.333C428.643 928.829 423.775 922.216 426.491 917.229C427.07 916.165 426.415 914.427 425.055 914.46ZM510.108 857.661C505.772 856.78 500.853 854.761 496.577 856.439C494.379 857.303 493.293 859.983 495.15 861.846C498.374 865.078 503.06 865.258 507.403 866.02L507.785 866.089C512.92 867.039 518.064 867.94 523.215 868.794C532.906 870.399 542.62 871.818 552.368 873.024C562.38 874.263 572.42 875.366 582.474 876.196L586.366 876.516C594.859 877.195 603.696 877.707 612.029 876.406C613.24 876.217 613.045 874.454 612.029 874.145C602.9 871.382 592.886 870.641 583.448 869.472C573.414 868.227 563.397 866.912 553.406 865.352C543.431 863.794 533.469 862.122 523.544 860.274C519.058 859.44 514.579 858.569 510.108 857.661ZM353.654 848.79C357.459 847.443 361.645 845.447 365.768 846.115C372.878 847.267 379.206 854.194 384.834 858.756L382.008 858.207C367.548 855.428 348.401 852.434 336.263 861.627C336.232 861.574 336.208 861.521 336.173 861.468C335.193 859.98 334.058 858.819 332.819 857.546C332.7 857.434 332.586 857.319 332.473 857.202L331.805 856.49L333.334 855.96C336.608 854.803 340.488 853.308 341.101 853.09L341.144 853.075C345.319 851.661 349.499 850.263 353.654 848.79ZM472.455 545.716C473.05 538.063 461.139 538.126 460.549 545.716C459.262 562.286 462.991 578.699 471.017 593.226C471.076 593.332 471.141 593.426 471.203 593.526C466.183 596.138 461.106 598.644 455.916 600.884C449.277 603.75 442.513 606.36 435.628 608.574C429.4 610.578 421.727 611.369 416.491 615.539C405.45 624.331 409.598 642.577 411.722 654.404L412.054 656.271C413.111 662.357 413.876 668.601 411.31 674.442C408.57 680.681 403.029 685.309 398.086 689.773L397.088 690.678C392.709 694.667 387.705 699.515 384.493 704.923C381.561 698.861 377.564 693.907 373.338 688.33C370.323 684.35 372.469 683.038 374.635 679.15C376.72 675.408 377.738 671.419 377.086 667.15C375.883 659.266 369.582 653.571 363.31 649.292C355.903 644.241 347.636 640.499 339.979 635.8C324.245 626.146 308.922 615.108 295.117 602.849C294.736 602.51 294.076 602.954 294.381 603.417C305.286 620.004 318.073 634.337 333.788 646.503C340.161 651.436 346.854 655.528 353.593 659.829L355.531 661.072C358.236 662.825 361.611 665.168 362.834 668.152C364.065 671.153 361.44 673.419 360.027 675.905C355.54 683.799 357.705 691.165 363.025 697.86L363.272 698.169C368.558 704.683 372.564 710.741 374.48 719.063C378.597 736.939 372.863 755.561 366.86 772.343L366.623 773.005C363.376 782.051 359.925 791.031 357.104 800.222L356.328 802.763C353.772 811.219 351.679 819.56 354.546 828.254C355.521 831.211 359.554 831.91 361.229 829.127C367.138 819.313 368.611 807.503 372.315 796.713C375.925 786.197 380.07 775.871 383.557 765.312C388.047 751.717 391.052 737.083 389.421 722.823C389.469 722.74 389.522 722.662 389.562 722.574L390.705 720.074C393.822 713.304 396.832 707.392 402.5 701.996C408.412 696.367 414.829 691.384 419.481 684.57C429.586 669.768 423.337 653.304 422.116 637.12L421.977 635.135C421.755 631.775 421.633 627.208 423.828 624.883C426.297 622.265 432.087 621.597 435.363 620.438C443.829 617.442 452.172 613.951 460.118 609.759C467.682 605.769 475.009 601.361 481.831 596.197L485.289 593.595C490.745 589.479 496.402 584.984 500.058 579.381C500.48 578.736 499.763 577.695 498.999 578.004C492.895 580.481 487.318 584.421 481.607 587.849C481.518 587.64 481.415 587.429 481.298 587.217C474.232 574.429 471.326 560.261 472.455 545.716ZM277.472 633.331C275.04 626.662 263.956 627.177 264.398 635.101C264.737 641.188 267.322 646.683 269.685 652.211L269.937 652.803C272.377 658.562 275.195 663.969 278.567 669.247C285.01 679.337 292.557 688.701 300.618 697.538C307.926 705.55 317.518 710.449 328.571 709.635C333.228 709.292 337.929 708.107 342.01 705.781C346.857 703.017 352.121 694.718 358.305 696.728C358.903 696.922 359.461 696.046 358.944 695.631C351.805 689.882 343.702 698.796 336.867 700.944C326.568 704.179 315.999 700.602 309.37 692.276C302.449 683.583 296.079 673.85 290.262 664.385C287.308 659.579 284.613 654.591 282.285 649.45C279.936 644.261 279.402 638.622 277.472 633.331ZM294.073 592.288C294.373 591.367 293.229 590.491 292.42 591.017C287.729 594.071 283.664 598.106 279.337 601.643C274.536 605.567 269.7 609.411 264.789 613.196C257.63 618.715 265.933 628.875 272.235 622.846C280.859 614.599 290.304 603.815 294.073 592.288ZM319.828 560.009C317.923 552.66 306.651 555.691 308.294 562.954L308.347 563.175C311.458 575.172 307.028 587.385 297.569 595.162L297.22 595.445C291.236 600.234 299.714 608.606 305.639 603.863C318.574 593.511 323.955 575.926 319.828 560.009Z" fill="black"/>
<path fill-rule="evenodd" clip-rule="evenodd" d="M456.514 119.867C304.944 112.414 202.103 231.946 197.679 279.612C194.608 312.699 196.692 356.827 196.692 386.393C196.692 401.485 189.076 447.359 197.679 469.355C216.825 518.314 238.457 556.663 298.394 556.663C358.331 556.663 449.703 525.598 481.078 485.531C486.807 478.215 557.992 424.665 557.992 382.572C557.992 292.767 564.665 125.186 456.514 119.867Z" fill="white"/>
<path fill-rule="evenodd" clip-rule="evenodd" d="M559.914 22.8725C551.276 20.1725 545.763 24.0595 541.83 30.0815C540.963 29.9125 540.124 29.9235 539.19 30.1485C538.959 30.2045 538.4 30.4155 537.977 30.5815C537.65 30.7185 537.355 30.8845 537.071 31.0605L536.902 30.9715V30.9715C536.254 30.2645 535.573 29.6195 534.838 29.0995C533.186 27.9315 531.484 27.5915 529.869 27.8315L529.121 27.5565V27.5565C522.727 25.3285 515.795 26.3625 511.46 31.8705C510.621 32.9345 509.943 34.1195 509.364 35.3695C508.064 35.7955 506.844 36.4115 505.793 37.1695C505.055 36.8225 504.275 36.5305 503.44 36.3155C498.723 35.1055 493.767 36.2475 489.923 39.1395C488.051 40.5465 486.674 42.3085 485.63 44.3205C484.441 44.5995 483.266 45.1015 482.165 45.7755C481.219 45.3045 480.258 44.8625 479.273 44.5595C475.672 43.4535 471.809 43.0465 468.061 43.3255C459.985 43.9245 452.174 53.1493 457.572 61.0709L457.739 61.3105C458.424 62.2655 459.02 63.2525 459.572 64.2555C457.639 65.0965 455.777 66.2215 454.057 67.6315C445.644 74.5268 444.887 85.1565 446.46 95.1841L446.527 95.6015H446.507C442.037 96.0259 438.178 100.695 440.819 105.086L440.947 105.292C444.522 110.815 447.586 116.916 451.001 122.728C460.452 126.135 469.565 130.331 478.146 135.415C483.491 140.097 488.58 145.047 493.057 150.554C495.292 153.304 497.345 156.215 499.232 159.233C497.723 159.958 495.857 159.921 494.281 158.461C480.262 145.47 463.325 136.353 445.291 130.243C443.992 129.802 443.14 128.972 442.662 127.99C434.656 125.709 426.509 123.94 418.281 122.688C416.013 120.527 413.637 118.461 411.379 116.309C408.496 113.563 404.885 113.603 402.187 115.328C400.847 114.717 399.477 114.177 398.085 113.693L397.222 113.399C396.862 113.281 396.518 113.144 396.164 113.036C386.509 110.084 377.68 111.18 368.183 113.605L366.967 113.922C362.54 115.096 359.754 114.908 355.467 113.827L354.984 113.704C350.429 112.516 345.557 111.636 340.901 112.887C336.03 114.196 332.798 117.108 329.479 120.626L329.147 120.98C327.599 122.636 326.704 122.817 324.677 122.776L322.506 122.712C314.312 122.487 306.288 122.833 300.15 129.171C297.882 131.514 295.447 134.831 293.986 137.859L293.774 138.311C293.706 138.458 293.646 138.581 293.59 138.691C292.71 138.549 291.34 137.992 290.688 137.865C281.758 136.133 274.307 138.802 268.572 145.839C267.318 147.379 265.423 150.403 264.11 152.065C263.65 152.455 263.216 152.873 262.805 153.312C260.652 154.687 257.601 154.6 255.187 155.082C248.608 156.392 241.576 158.894 238.231 165.155C236.833 167.768 236.316 170.627 235.726 173.483C233.514 174.936 231.781 177.03 230.435 179.297C228.799 182.049 228.103 185.42 226.219 188.019C224.851 189.907 222.76 190.915 220.771 192.069L220.012 192.515C214.117 196.025 209.502 199.92 207.561 206.797L207.393 207.408C207.079 208.462 205.974 211.468 206.936 211.017C206.107 211.474 204.699 211.635 203.943 211.885C199.854 213.238 196.299 215.424 194.121 219.263C192.464 222.184 192.163 225.23 191.688 228.451L191.486 229.752C191.435 230.066 191.373 230.432 191.309 230.786L191.245 231.135L191.233 231.143C190.492 231.463 189.765 231.81 189.05 232.184C185.661 234.179 183.344 237.642 183.344 241.651C183.344 243.597 183.952 245.113 184.837 246.466C184.121 247.55 183.567 248.705 183.148 249.992C182.326 252.505 182.269 255.253 182.545 257.853C182.877 260.973 183.678 263.814 184.621 266.794C184.984 267.944 185.131 269.551 185.678 270.649C184.669 271.936 184.067 273.509 184.254 275.061C184.521 277.281 185.534 279.876 187.545 281.121C188.528 285.971 190.644 290.927 192.727 294.892C192.967 295.352 193.257 295.762 193.577 296.102C193.287 311.932 194.447 327.873 194.527 343.682C194.617 360.892 194.257 378.113 193.657 395.302C192.647 423.792 189.037 453.252 197.447 481.033C204.327 503.772 218.108 523.292 236.587 538.092C255.507 553.232 278.316 561.993 302.537 563.363C314.857 564.052 327.387 562.652 339.307 559.462L340.581 559.116C352.113 555.948 365.471 551.108 373.957 542.632C378.437 538.152 373.907 528.663 367.337 531.272C360.827 533.863 354.986 537.692 348.527 540.392C342.757 542.802 336.736 544.652 330.637 546.012C318.407 548.762 305.437 549.363 293.007 547.652C248.127 541.512 213.157 504.243 206.257 460.052C204.348 447.814 204.383 435.375 204.512 423.009L204.654 409.459C204.763 398.124 204.804 386.783 204.387 375.453C203.857 360.873 202.827 346.302 201.447 331.783L200.728 324.228C199.875 315.387 198.914 306.48 197.257 297.762C198.614 297.833 209.321 279.517 215.263 269.282C217.432 267.562 219.263 265.425 219.97 262.66C220.117 262.083 220.193 261.501 220.239 260.918C221.529 258.891 222.89 256.916 224.326 255L224.64 254.859C224.881 254.749 225.068 254.658 225.178 254.596C228.312 252.819 230.929 250.127 232.72 247.007C233.324 245.955 233.819 244.857 234.221 243.734C236.776 241.227 239.449 238.835 242.257 236.592C242.533 236.372 242.818 236.166 243.096 235.949C246.671 234.615 249.809 232.605 252.097 229.71C253.053 229.118 254.016 228.538 254.987 227.97C257.901 227.943 260.845 227.264 263.709 226.087C268.949 223.935 273.134 219.682 278.398 217.711C283.965 215.628 289.83 220.362 295.745 219.508C297.255 219.29 298.752 218.831 300.144 218.165C303.475 221.693 307.01 225.019 310.907 227.93C316.564 232.156 322.348 234.087 328.905 235.996C332.154 239.079 335.792 242.068 340.179 242.507C350.332 250.623 361.191 257.469 372.617 263.825C374.455 264.847 376.282 265.308 378.016 265.32C381.6 267.57 385.512 269.301 389.645 270.499C390.94 270.874 392.275 270.953 393.588 270.792L397.174 273.713V273.713C399.67 275.745 402.332 276.716 404.879 276.779C406.429 277.966 408.035 279.089 409.688 280.169C411.459 281.328 413.756 281.808 416.064 281.668C419.589 285.116 424.16 285.478 427.988 283.89C428.514 284.198 429.055 284.49 429.663 284.777C430.489 285.168 431.351 285.498 432.23 285.765C436.222 290.067 442.065 292.323 447.92 291.733C452.292 294.411 457.381 295.804 462.356 295.491C463.115 299.303 463.743 303.129 464.274 306.968L464.329 309.78C464.334 310.235 464.335 310.591 464.329 310.825L464.326 310.918C463.839 323.247 463.573 335.582 463.092 347.913L463.048 348.886C462.501 359.659 459.85 379.3 475.685 378.873C481.586 378.713 487.441 374.368 492.036 370.795L492.683 370.291C493.035 370.017 493.396 369.736 493.759 369.45C497.193 369.004 500.579 368.169 504.047 368.042C508.327 367.892 512.827 368.332 516.997 369.302C524.357 371.012 531.477 374.363 536.277 380.432C536.697 380.962 537.087 381.522 537.457 382.082C537.797 383.232 538.377 384.292 539.147 385.212C543.687 395.422 541.066 408.913 536.047 418.252C530.067 429.376 520.604 437.067 508.704 440.941L508.107 441.132C499.977 443.672 496.867 448.592 492.447 455.432C488.307 461.852 483.557 467.832 478.457 473.512C468.587 484.502 454.736 493.573 448.997 507.482C447.837 510.283 451.157 512.922 453.727 512.203C463.797 509.373 470.857 502.203 478.177 495.073C483.243 490.135 488.115 484.999 492.686 479.604C493.645 480.047 494.7 480.345 495.799 480.479C500.649 481.071 505.651 480.825 509.897 478.211C511.854 478.389 513.893 477.71 515.407 476.323C516.796 475.047 517.994 473.667 519.006 472.198C520.544 472.333 522.054 472.374 523.495 472.135C524.19 472.07 524.863 471.887 525.48 471.587C526.626 471.134 527.713 470.436 528.711 469.365C530.733 467.195 531.508 464.129 531.135 461.215C531.535 461.131 531.932 461.028 532.324 460.895C535.016 459.984 537.088 458.175 538.412 455.713C540.781 454.384 542.914 452.582 544.529 450.668C546.496 448.339 547.98 445.714 548.852 442.815C549.753 442.396 550.628 441.911 551.466 441.343C557.471 437.28 560.909 429.652 558.551 422.599L558.471 422.377C558.351 422.059 558.135 421.518 557.869 420.908C557.907 420.411 557.947 419.914 557.974 419.416L558.057 417.914V417.914L559.26 417.403V417.403C565.26 415.017 569.316 411.796 570.037 405.045C570.187 403.649 569.645 402.225 568.79 401.035L568.794 400.661V400.661C569.184 400.459 569.555 400.252 569.882 400.044C573.153 397.955 575.163 394.211 574.938 390.339C574.732 386.809 572.776 383.995 570.578 381.393L569.95 380.664C569.898 380.605 569.84 380.539 569.777 380.468L571.23 380.01C572.173 379.71 573.037 379.412 573.658 379.064C576.062 377.717 578.1 375.896 579.357 373.582C579.54 373.295 579.726 373.013 579.894 372.707C581.517 369.746 581.729 365.952 580.682 362.773C580.558 362.398 580.398 362.045 580.234 361.694C584.654 360.136 588.057 356.916 588.467 350.982C588.628 348.648 588.117 346.323 587.006 344.332C587.252 342.991 587.303 341.601 587.144 340.226C588.699 338.757 589.907 336.987 590.447 334.828C591.468 330.749 589.599 326.868 586.821 323.309C587.849 320.495 587.902 317.32 586.728 314.487C587.18 313.073 587.437 311.578 587.451 310.043C587.482 306.644 586.435 303.805 584.744 301.39C587.121 298.484 588.25 294.622 586.846 291.003C585.847 288.431 584.705 286.078 583.389 283.898C584.08 282.24 584.482 280.383 584.482 278.304C584.482 274.564 583.08 271.601 580.935 269.176C581.866 264.747 579.973 259.353 575.847 257.403C574.292 256.667 572.21 255.899 569.916 255.301C569.055 252.611 568.156 249.932 567.207 247.272C565.712 243.085 564.104 238.956 562.4 234.875C563.381 235.734 564.41 236.535 565.474 237.261C568.839 241.539 573.3 245.245 577.049 247.462C584.481 251.858 592.981 249.25 596.65 241.895C600.098 244.469 604.236 245.993 608.651 245.472C613.657 244.881 618.234 241.639 619.484 236.582C619.665 235.85 619.774 235.059 619.785 234.263C622.656 236.307 625.66 238.188 628.955 239.265C633.152 240.637 637.436 237.346 637.99 233.246C638.209 231.621 637.905 230.185 637.258 228.972L637.668 228.81C637.736 228.782 637.804 228.752 637.871 228.721C640.072 227.69 641.781 225.8 642.593 223.62C647.359 225.464 652.815 223.303 654.327 218.062C656.127 211.832 656.236 205.522 654.827 199.453C659.877 195.783 663.167 189.613 663.727 183.163C664.136 178.533 663.031 174.259 661.084 170.307C665.86 168.521 667.502 162.261 665.232 157.751C668.247 156.025 670.213 152.366 670.257 148.804C671.604 146.764 672.035 144.137 670.918 141.193C669.445 137.314 666.445 134.069 663.01 131.524C664.508 128.916 665.621 126.072 666.312 123.133C669.158 122.3 671.455 119.998 671.923 116.541C672.509 112.207 669.656 108.533 665.816 107.563C665.39 106.243 664.87 104.952 664.227 103.712C666.127 99.2115 665.847 93.5215 663.397 88.6015C661.227 84.2515 657.697 81.5915 653.447 79.7515C654.527 76.0515 653.097 72.3615 649.497 69.6115C645.102 66.2505 640.282 63.6815 635.217 61.8665C635.667 55.8435 633.149 49.6755 627.198 47.5755C625.607 47.0145 623.951 46.8075 622.268 46.8145C621.046 44.1575 619.007 41.9975 616.346 40.0855C612.319 37.1935 604.794 38.9603 602.561 43.4955L602.452 43.7285C602.338 43.9855 602.215 44.2205 602.098 44.4695C601.648 42.2675 600.596 40.1875 598.905 38.4825C594.678 34.2195 590.215 34.1395 585.92 35.9625C585.132 34.0085 584.178 32.1505 583.018 30.4515C578.807 24.2875 571.85 23.5025 566.756 26.8405C564.714 25.0455 562.435 23.6615 559.914 22.8725ZM529.806 393.542C521.327 390.222 511.037 391.203 502.657 394.392L502.043 394.63C494.642 397.557 482.617 404.066 481.167 412.392C480.417 416.703 484.516 420.432 488.677 418.163C492.297 416.192 494.327 412.222 497.207 409.342C500.056 406.493 503.247 404.203 506.726 402.192C513.986 398.002 521.617 396.372 529.806 395.163C530.726 395.033 530.476 393.802 529.806 393.542Z" fill="black"/>
<path fill-rule="evenodd" clip-rule="evenodd" d="M299.958 487.159C307.325 489.292 315.232 489.483 322.741 487.28C329.552 485.281 336.545 480.882 341.558 475.062C346.011 469.891 348.895 463.608 348.781 456.901C348.768 456.135 348.494 455.495 348.073 454.999C347.62 454.465 346.986 454.098 346.307 453.939C345.609 453.775 344.871 453.833 344.243 454.119C343.674 454.377 343.187 454.816 342.882 455.457C342.112 456.469 341.345 457.466 340.574 458.435C334.38 466.084 328.382 471.799 319.068 473.849C314.015 474.962 308.968 474.469 304.337 472.771C299.38 470.954 294.898 467.76 291.387 463.671C289.8 461.824 287.926 461.07 286.094 461.057C284.018 461.043 281.966 462.007 280.421 463.549C278.901 465.065 277.884 467.124 277.791 469.279C277.71 471.17 278.327 473.145 279.968 474.907C285.373 480.711 292.379 484.964 299.958 487.159ZM300.186 391.367C292.634 395.957 281.128 406.66 289.252 418.04C298.814 428.073 312.581 416.569 319.366 411.366C325.657 407.334 332.725 417.704 326.888 422.413C277.864 458.708 257.969 392.567 296.366 385.97C300.594 385.243 302.164 389.947 300.186 391.367ZM370.825 371.17C373.252 369.618 376.107 369.085 379.271 370.525C381.744 371.649 386.081 375.398 389.099 380.325C391.164 383.697 392.628 387.651 392.323 391.771C392.252 392.728 392.606 393.433 393.163 393.955C393.604 394.367 394.24 394.669 394.987 394.764C395.621 394.844 396.331 394.772 396.909 394.592C398.007 394.249 398.588 393.536 398.807 392.955C400.92 387.343 400.01 381.08 397.642 375.43C394.445 367.805 388.641 361.418 384.838 359.358C378.33 355.833 370.653 355.671 364.136 359.262C358.589 362.319 355.12 367.253 351.67 372.283C350.936 373.353 350.209 374.414 349.456 375.457C347.949 377.546 347.799 379.619 348.382 381.396C349.029 383.364 350.678 385.025 352.741 385.895C354.647 386.699 356.859 386.812 358.817 385.986C360.471 385.288 361.988 383.929 362.949 381.622C364.566 377.736 367.261 373.45 370.825 371.17V371.17ZM247.559 379.814C249.221 380.68 250.522 380.942 252.366 380.389C253.385 380.083 254.393 379.496 255.182 378.707C255.964 377.925 256.528 376.953 256.748 375.874C257.287 373.211 258.744 370.719 260.819 369.095C262.594 367.706 264.833 366.97 267.317 367.385C269.998 367.833 272.551 369.552 274.31 371.579C274.898 372.257 275.359 373.027 275.822 373.792C276.689 375.223 277.531 376.553 278.726 377.603C279.179 378.003 279.862 378.28 280.523 378.28C280.792 378.28 281.065 378.236 281.324 378.155C283.992 375.478 284.505 373.446 284.419 371.431C284.329 369.319 283.496 367.179 282.15 365.184C278.992 360.502 272.997 356.663 268.952 355.793C263.411 354.603 257.909 356.032 253.497 359.126C248.958 362.31 245.595 367.254 244.546 372.825C244.294 374.167 244.401 375.615 244.912 376.871C245.411 378.098 246.281 379.149 247.559 379.814ZM358.606 321.253C361.931 324.492 365.866 324.994 369.847 325.44C372.059 325.691 373.825 325.892 375.563 326.284C380.339 327.363 385.061 328.986 389.368 331.325C393.871 333.77 398.778 336.718 402.308 340.495C403.147 341.394 403.938 342.337 404.731 343.282C405.453 344.144 406.149 344.974 406.883 345.774C407.725 346.693 408.525 347.656 409.321 348.617C409.813 349.427 409.91 349.627 410.01 349.834C410.159 350.146 410.332 350.495 410.53 350.869C410.802 351.382 411.119 351.943 411.452 352.452C412.006 353.383 412.303 353.639 412.56 353.753C412.986 353.943 413.39 354.037 413.782 353.986C414.149 353.939 414.496 353.762 414.838 353.473C416.545 352.031 417.048 349.664 416.996 347.151C416.918 343.338 415.512 339.117 414.215 336.522C411.201 330.492 407.021 324.224 401.994 319.724C396.258 314.587 389.982 310.698 382.774 308.018C378.295 306.352 373.109 304.823 368.229 305.016C364.716 305.155 361.363 306.199 358.593 308.807C356.893 310.408 356.076 312.685 356.076 314.96C356.076 317.28 356.924 319.615 358.606 321.253ZM240.797 350.918C241.008 351.264 241.301 351.503 241.627 351.646C241.968 351.797 242.349 351.84 242.715 351.778C243.079 351.717 243.425 351.552 243.7 351.3C243.963 351.058 244.163 350.737 244.253 350.345C246.46 340.649 250.747 333.435 259.896 328.784C264.396 326.495 269.571 325.041 274.47 323.882C275.894 323.545 277.398 323.327 278.913 323.106C283.661 322.412 288.443 321.619 291.538 317.781C293.403 315.469 294.186 312.513 293.744 309.809C293.327 307.263 291.839 304.929 289.135 303.53C282.402 300.049 274.036 303.465 267.237 306.374C266.733 306.59 266.238 306.802 265.754 307.007C259.105 309.813 253.041 313.517 248.056 318.815C244.101 323.018 240.437 329.231 238.961 335.623C237.733 340.94 238.022 346.369 240.797 350.918Z" fill="black"/>
</svg>
